<!-- WebNote SVG Icon - 可用于生成各种尺寸的PNG -->
<svg width="128" height="128" viewBox="0 0 128 128" xmlns="http://www.w3.org/2000/svg">
  <!-- 背景圆形 -->
  <circle cx="64" cy="64" r="60" fill="#667eea" stroke="#fff" stroke-width="4"/>
  
  <!-- 笔记本图标 -->
  <rect x="35" y="25" width="58" height="78" fill="#fff" rx="4"/>
  <rect x="40" y="30" width="48" height="4" fill="#667eea" rx="2"/>
  <rect x="40" y="40" width="35" fill="#FFEB3B" height="3" rx="1"/>
  <rect x="40" y="48" width="42" fill="#4CAF50" height="3" rx="1"/>
  <rect x="40" y="56" width="28" fill="#2196F3" height="3" rx="1"/>
  <rect x="40" y="64" width="38" fill="#E91E63" height="3" rx="1"/>
  <rect x="40" y="72" width="32" fill="#FF9800" height="3" rx="1"/>
  <rect x="40" y="80" width="25" fill="#9C27B0" height="3" rx="1"/>
  <rect x="40" y="88" width="30" fill="#F44336" height="3" rx="1"/>
  
  <!-- 高光效果 -->
  <path d="M 35 25 Q 35 20, 40 20 L 88 20 Q 93 20, 93 25 L 93 35 L 35 35 Z" fill="url(#highlight)" opacity="0.3"/>
  
  <defs>
    <linearGradient id="highlight" x1="0%" y1="0%" x2="100%" y2="100%">
      <stop offset="0%" style="stop-color:#ffffff;stop-opacity:0.8" />
      <stop offset="100%" style="stop-color:#ffffff;stop-opacity:0.1" />
    </linearGradient>
  </defs>
</svg>